<?xml version="1.0" encoding="utf-8"?>
<!-- Generator: Adobe Illustrator 19.0.0, SVG Export Plug-In . SVG Version: 6.00 Build 0)  -->
<svg version="1.1" id="Слой_1" xmlns="http://www.w3.org/2000/svg" xmlns:xlink="http://www.w3.org/1999/xlink" x="0px" y="0px"
	 viewBox="0 0 47.1 34.3" style="enable-background:new 0 0 47.1 34.3;" xml:space="preserve">
<style type="text/css">
	.st0{clip-path:url(#SVGID_2_);fill:#505050;}
</style>
<g>
	<defs>
		<rect id="SVGID_1_" y="0" width="47.1" height="34.3"/>
	</defs>
	<clipPath id="SVGID_2_">
		<use xlink:href="#SVGID_1_"  style="overflow:visible;"/>
	</clipPath>
	<path class="st0" d="M15.1,24.6h18.6v-2H15.1V24.6z M43.9,8H38l-0.9-5.3c-0.1-0.9-0.6-1.6-1.3-2.1c-0.7-0.5-1.6-0.7-2.4-0.6
		L2.7,5.1C1.9,5.2,1.1,5.7,0.6,6.4C0.1,7.1-0.1,8,0,8.8l3.1,18.6h0l0.2,1.1c0.1,0.9,0.6,1.6,1.3,2.1c0.6,0.4,1.2,0.6,1.9,0.6
		c0.2,0,0.4,0,0.5,0l2.5-0.4v0.4c0,1.8,1.4,3.2,3.2,3.2h31.1c1.8,0,3.2-1.4,3.2-3.2V11.2C47.1,9.4,45.6,8,43.9,8 M9.5,28.7l-2.9,0.5
		c-0.3,0.1-0.6,0-0.9-0.2c-0.3-0.2-0.4-0.5-0.5-0.8L5.1,27l4.4-0.7V28.7z M9.5,11.2v11.4l-5,0.8L2,8.5C2,8.2,2,7.8,2.2,7.6
		C2.4,7.3,2.7,7.1,3,7.1L33.7,2c0.3-0.1,0.6,0,0.9,0.2c0.3,0.2,0.4,0.5,0.5,0.8L36,8H12.7C11,8,9.5,9.4,9.5,11.2 M45.1,31.1
		c0,0.7-0.5,1.2-1.2,1.2H12.7c-0.7,0-1.2-0.5-1.2-1.2V11.2c0-0.7,0.6-1.2,1.2-1.2h31.1c0.7,0,1.2,0.6,1.2,1.2V31.1z M15.1,28.9h10.3
		v-2H15.1V28.9z"/>
</g>
</svg>
