<?xml version="1.0" encoding="utf-8"?>
<!-- Generator: Adobe Illustrator 19.0.0, SVG Export Plug-In . SVG Version: 6.00 Build 0)  -->
<svg version="1.1" id="Layer_1" xmlns="http://www.w3.org/2000/svg" xmlns:xlink="http://www.w3.org/1999/xlink" x="0px" y="0px"
	 viewBox="-268.2 405.7 32 32" style="enable-background:new -268.2 405.7 32 32;" xml:space="preserve">
<g>
	<g>
		<path d="M-251.7,426l3.6-4.9c0.3-0.4,0.1-0.8-0.4-0.8h-7.2c-0.5,0-0.7,0.3-0.5,0.8l3.6,4.9C-252.5,426.5-252,426.5-251.7,426z"/>
	</g>
	<g>
		<path d="M-244.7,430.3h-15c-0.6,0-1-0.4-1-1s0.4-1,1-1h15c0.6,0,1,0.4,1,1S-244.1,430.3-244.7,430.3z"/>
	</g>
	<g>
		<path d="M-252.2,424.5c-0.6,0-1-0.4-1-1v-11.3c0-0.6,0.4-1,1-1c0.6,0,1,0.4,1,1v11.3C-251.2,424-251.6,424.5-252.2,424.5z"/>
	</g>
	<g>
		<path d="M-252.2,437.7c-8.8,0-16-7.2-16-16s7.2-16,16-16s16,7.2,16,16S-243.4,437.7-252.2,437.7z M-252.2,407.7
			c-7.7,0-14,6.3-14,14s6.3,14,14,14s14-6.3,14-14S-244.5,407.7-252.2,407.7z"/>
	</g>
</g>
</svg>
