<?xml version="1.0" encoding="utf-8"?>
<!-- Generator: Adobe Illustrator 19.0.0, SVG Export Plug-In . SVG Version: 6.00 Build 0)  -->
<svg version="1.1" id="Layer_2" xmlns="http://www.w3.org/2000/svg" xmlns:xlink="http://www.w3.org/1999/xlink" x="0px" y="0px"
	 viewBox="-269 404.7 32 32" style="enable-background:new -269 404.7 32 32;" xml:space="preserve">
<g>
	<g>
		<path d="M-253,436.7c-8.8,0-16-7.2-16-16s7.2-16,16-16s16,7.2,16,16S-244.2,436.7-253,436.7z M-253,406.7c-7.7,0-14,6.3-14,14
			s6.3,14,14,14s14-6.3,14-14S-245.3,406.7-253,406.7z"/>
	</g>
	<g>
		<path d="M-245.8,421.8c-0.3,0-0.5-0.1-0.7-0.3l-5.2-5.2l-0.9-1c-0.4-0.4-0.3-1,0.1-1.4c0.4-0.4,1-0.3,1.4,0.1l0.9,1l5.2,5.2
			c0.4,0.4,0.4,1,0,1.4C-245.3,421.7-245.5,421.8-245.8,421.8z"/>
	</g>
	<g>
		<path d="M-251.9,427.9c-0.3,0-0.5-0.1-0.7-0.3c-0.4-0.4-0.4-1,0-1.4l6.1-6.1c0.4-0.4,1-0.4,1.4,0s0.4,1,0,1.4l-6.1,6.1
			C-251.4,427.8-251.6,427.9-251.9,427.9z"/>
	</g>
	<g>
		<path d="M-253.1,422c-0.3,0-0.5-0.1-0.7-0.3l-6.1-6.1c-0.4-0.4-0.4-1,0-1.4c0.4-0.4,1-0.4,1.4,0l6.1,6.1c0.4,0.4,0.4,1,0,1.4
			C-252.6,421.9-252.8,422-253.1,422z"/>
	</g>
	<g>
		<path d="M-259.2,428.2c-0.3,0-0.5-0.1-0.7-0.3c-0.4-0.4-0.4-1,0-1.4l6.1-6.2c0.4-0.4,1-0.4,1.4,0c0.4,0.4,0.4,1,0,1.4l-0.9,0.9
			l-5.2,5.3C-258.7,428.1-258.9,428.2-259.2,428.2z"/>
	</g>
</g>
</svg>
