<?xml version="1.0" encoding="utf-8"?>
<!-- Generator: Adobe Illustrator 19.0.0, SVG Export Plug-In . SVG Version: 6.00 Build 0)  -->
<svg version="1.1" id="Layer_2" xmlns="http://www.w3.org/2000/svg" xmlns:xlink="http://www.w3.org/1999/xlink" x="0px" y="0px"
	 viewBox="-269 404.7 32 32" style="enable-background:new -269 404.7 32 32;" xml:space="preserve">
<g>
	<g>
		<path d="M-247.4,420l-7.6-4.4c-0.6-0.4-1.3-0.1-1.3,0.7l0.1,8.7c0,0.8,0.5,1.1,1.3,0.7l7.5-4.3
			C-246.7,421.1-246.7,420.4-247.4,420z"/>
	</g>
	<g>
		<path d="M-253,436.7c-8.8,0-16-7.2-16-16s7.2-16,16-16s16,7.2,16,16S-244.2,436.7-253,436.7z M-253,406.7c-7.7,0-14,6.3-14,14
			s6.3,14,14,14s14-6.3,14-14S-245.3,406.7-253,406.7z"/>
	</g>
</g>
</svg>
