<?xml version="1.0" encoding="utf-8"?>
<!-- Generator: Adobe Illustrator 19.0.0, SVG Export Plug-In . SVG Version: 6.00 Build 0)  -->
<svg version="1.1" id="Слой_1" xmlns="http://www.w3.org/2000/svg" xmlns:xlink="http://www.w3.org/1999/xlink" x="0px" y="0px"
	 viewBox="0 0 36 50" style="enable-background:new 0 0 36 50;" xml:space="preserve">
<style type="text/css">
	.st0{clip-path:url(#SVGID_2_);fill:#464646;}
</style>
<g>
	<defs>
		<rect id="SVGID_1_" width="36" height="50"/>
	</defs>
	<clipPath id="SVGID_2_">
		<use xlink:href="#SVGID_1_"  style="overflow:visible;"/>
	</clipPath>
	<path class="st0" d="M32,22H4c-2.2,0-4,1.8-4,4v20c0,2.2,1.8,4,4,4h28c2.2,0,4-1.8,4-4V26C36,23.8,34.2,22,32,22 M34,46
		c0,1.1-0.9,2-2,2H4c-1.1,0-2-0.9-2-2V26c0-1.1,0.9-2,2-2h28c1.1,0,2,0.9,2,2V46z M7,13C7,6.9,11.9,2,18,2s11,4.9,11,11v7h2v-7
		c0-7.2-5.8-13-13-13S5,5.8,5,13v7h2V13z M18,31c-1.7,0-3,1.3-3,3c0,1.3,0.8,2.4,2,2.8V43h2v-6.2c1.2-0.4,2-1.5,2-2.8
		C21,32.3,19.7,31,18,31"/>
</g>
</svg>
