<?xml version="1.0" encoding="utf-8"?>
<!-- Generator: Adobe Illustrator 19.0.0, SVG Export Plug-In . SVG Version: 6.00 Build 0)  -->
<svg version="1.1" id="Слой_1" xmlns="http://www.w3.org/2000/svg" xmlns:xlink="http://www.w3.org/1999/xlink" x="0px" y="0px"
	 viewBox="0 0 42 50" style="enable-background:new 0 0 42 50;" xml:space="preserve">
<style type="text/css">
	.st0{clip-path:url(#SVGID_2_);fill:#464646;}
</style>
<g>
	<defs>
		<rect id="SVGID_1_" y="0" width="42" height="50"/>
	</defs>
	<clipPath id="SVGID_2_">
		<use xlink:href="#SVGID_1_"  style="overflow:visible;"/>
	</clipPath>
	<path class="st0" d="M41.6,6.2C41.4,6,41.1,6,40.8,6c0,0-1.1,0.2-2.8,0.2c-3.3,0-9.9-0.8-16.4-6c-0.4-0.3-1-0.3-1.3,0.1
		C15.1,5.5,8.1,6.2,4.4,6.2C2.5,6.2,1.2,6,1.2,6C0.9,6,0.6,6,0.4,6.2C0.1,6.4,0,6.7,0,7v11.5c0,24.4,20.5,31.4,20.7,31.5
		c0.1,0,0.2,0,0.3,0c0.1,0,0.2,0,0.3,0c0.2-0.1,5.3-1.8,10.4-6.5c4.7-4.4,10.3-12.2,10.3-25V7C42,6.7,41.9,6.4,41.6,6.2 M40,18.5
		C40,40.1,23.6,47,21,47.9C18.5,47,2,39.9,2,18.5V8.1c0.6,0.1,1.4,0.1,2.4,0.1c3.9,0,11.1-0.8,16.7-5.9c6.8,5.1,13.5,5.9,17,5.9
		c0.8,0,1.5,0,2-0.1V18.5z M23.9,7.7L5.8,25.8c0.2,0.8,0.4,1.5,0.6,2.2L25.8,8.6C25.2,8.3,24.6,8,23.9,7.7 M11.1,10.5L5,16.6v1.9
		c0,0.3,0,0.6,0,0.9l10-10C13.7,9.9,12.3,10.3,11.1,10.5 M31.2,10.4L8.5,33.1c0.3,0.6,0.7,1.2,1.1,1.8l24-24
		C32.8,10.7,32,10.6,31.2,10.4 M14.2,40.2L37,17.4v-2.8L12.7,38.9C13.2,39.3,13.7,39.8,14.2,40.2 M20.1,44.3l15.1-15.1
		c0.4-1.2,0.8-2.5,1.1-3.9l-18,18C19,43.7,19.6,44,20.1,44.3"/>
</g>
</svg>
